<?xml version="1.0" encoding="UTF-8" standalone="no"?>
<!DOCTYPE svg PUBLIC "-//W3C//DTD SVG 1.1//EN" "http://www.w3.org/Graphics/SVG/1.1/DTD/svg11.dtd">
<svg xmlns="http://www.w3.org/2000/svg" version="1.1" viewBox="0.00 0.00 173.00 157.00">
<path stroke="#808080" stroke-width="2.00" fill="none" stroke-linecap="butt" vector-effect="non-scaling-stroke" d="
  M 39.55 21.08
  A 3.11 3.11 0.0 0 0 36.44 17.97
  A 3.11 3.11 0.0 0 0 33.33 21.08
  A 3.11 3.11 0.0 0 0 36.44 24.19
  A 3.11 3.11 0.0 0 0 39.55 21.08"
/>
<path fill="#000000" d="
  M 85.69 0.00
  Q 118.87 3.65 136.63 31.83
  Q 137.90 33.84 139.07 35.62
  A 0.51 0.50 -31.9 0 1 138.90 36.33
  L 134.21 39.04
  A 0.61 0.61 0.0 0 1 133.37 38.80
  C 122.58 18.70 103.52 6.49 80.66 6.28
  Q 60.78 6.09 43.72 18.80
  A 1.21 1.20 -15.2 0 0 43.25 19.62
  L 42.92 22.69
  A 1.83 1.77 63.7 0 1 42.70 23.38
  Q 39.76 28.62 34.46 27.53
  A 3.24 3.22 -24.6 0 1 33.48 27.17
  Q 29.46 24.94 30.04 19.73
  C 30.45 16.07 35.06 13.82 37.98 14.42
  A 1.21 1.20 32.6 0 0 38.91 14.22
  Q 39.34 13.90 46.65 9.43
  Q 60.77 0.78 77.39 0.00
  L 85.69 0.00
  Z
  M 39.55 21.08
  A 3.11 3.11 0.0 0 0 36.44 17.97
  A 3.11 3.11 0.0 0 0 33.33 21.08
  A 3.11 3.11 0.0 0 0 36.44 24.19
  A 3.11 3.11 0.0 0 0 39.55 21.08
  Z"
/>
<circle fill="#ffffff" cx="36.44" cy="21.08" r="3.11"/>
<path fill="#000000" d="
  M 24.02 157.00
  L 22.02 157.00
  Q 19.39 156.12 18.88 153.25
  A 2.11 2.10 -42.3 0 1 18.93 152.28
  Q 19.55 150.22 20.81 148.81
  Q 28.38 140.35 34.68 134.69
  A 1.06 1.05 -45.0 0 0 34.69 133.12
  Q 33.08 131.67 30.48 130.32
  Q 27.13 128.58 11.20 120.63
  Q 8.90 119.48 7.98 117.18
  A 0.72 0.71 -22.1 0 1 8.38 116.25
  Q 11.17 115.12 14.77 115.18
  Q 27.93 115.38 45.62 115.17
  Q 50.04 115.12 53.18 112.46
  Q 68.77 99.25 80.38 90.03
  A 0.83 0.82 -57.9 0 0 80.05 88.58
  L 9.11 72.34
  A 0.99 0.97 82.7 0 1 8.44 71.81
  Q 7.42 69.74 9.48 68.87
  Q 22.13 63.53 33.41 60.14
  Q 39.09 58.42 46.06 58.09
  Q 50.78 57.87 58.84 59.27
  Q 78.40 62.67 99.76 65.06
  Q 101.38 65.24 103.41 64.55
  A 2.74 2.70 17.1 0 0 104.20 64.14
  Q 120.92 51.75 130.30 45.81
  Q 141.57 38.69 156.98 33.71
  Q 158.31 33.28 166.34 32.03
  A 2.80 2.80 0.0 0 1 167.22 32.03
  Q 173.66 32.98 172.14 39.43
  Q 171.14 43.66 167.55 47.56
  Q 160.99 54.66 151.32 62.81
  Q 139.25 72.99 125.59 82.67
  A 2.12 2.11 -33.0 0 0 124.99 85.47
  Q 128.85 91.96 133.58 97.93
  Q 137.29 102.60 138.83 108.94
  Q 141.13 118.42 143.59 129.71
  Q 144.07 131.88 143.61 133.61
  A 0.61 0.60 -62.3 0 1 142.63 133.92
  L 103.44 100.44
  A 1.09 1.08 -46.6 0 0 101.99 100.49
  Q 99.34 103.05 97.16 104.67
  Q 91.13 109.15 68.31 127.33
  Q 52.33 140.05 45.85 144.59
  C 38.81 149.52 31.80 154.25 24.02 157.00
  Z"
/>
<path fill="#000000" d="
  M 0.00 60.50
  L 0.00 58.88
  Q -0.10 50.74 1.28 45.82
  C 2.44 41.66 6.12 38.40 10.58 37.59
  C 14.23 36.93 16.05 36.82 18.73 35.91
  Q 20.73 35.23 22.42 35.17
  A 1.31 1.31 0.0 0 1 23.76 36.28
  Q 24.31 40.00 23.93 42.93
  Q 23.64 45.14 21.49 44.58
  Q 19.63 44.09 16.95 43.03
  Q 7.12 39.17 4.90 49.19
  C 3.85 53.95 3.41 61.19 4.35 66.83
  C 5.19 71.86 4.53 75.24 5.57 79.73
  C 6.38 83.25 7.01 87.17 7.71 89.05
  C 11.89 100.24 23.20 105.83 34.43 102.16
  C 42.30 99.59 46.47 93.66 49.14 86.04
  A 0.72 0.72 0.0 0 1 49.99 85.57
  L 55.07 86.73
  A 0.67 0.67 0.0 0 1 55.57 87.53
  Q 52.81 99.50 42.74 105.96
  C 39.24 108.21 35.84 108.96 30.90 110.58
  A 3.76 3.40 -53.1 0 1 30.03 110.75
  C 25.99 110.99 23.34 110.05 19.40 108.75
  Q 6.79 104.59 1.44 91.80
  C -1.10 85.73 1.14 80.42 0.73 74.32
  Q 0.26 67.41 0.00 60.50
  Z"
/>
<path fill="#000000" d="
  M 55.80 53.46
  A 1.07 1.07 0.0 0 1 54.78 54.92
  L 52.92 54.88
  A 1.85 1.85 0.0 0 1 51.11 52.99
  C 51.24 47.22 48.76 40.72 41.63 42.17
  Q 38.06 42.89 34.01 44.62
  A 1.32 1.31 72.4 0 1 32.21 43.68
  Q 31.49 40.36 32.20 36.45
  A 1.58 1.58 0.0 0 1 34.15 35.21
  Q 39.09 36.49 43.57 37.35
  C 50.34 38.65 54.05 41.76 54.96 48.81
  Q 55.45 52.57 55.80 53.46
  Z"
/>
<path fill="#000000" d="
  M 137.30 96.45
  L 134.55 92.81
  A 2.02 2.02 0.0 0 1 134.25 90.95
  L 138.33 78.93
  A 4.68 4.62 -9.4 0 1 139.93 76.73
  L 145.01 72.90
  A 0.43 0.43 0.0 0 1 145.69 73.30
  Q 144.08 85.93 138.40 96.37
  A 0.66 0.65 40.6 0 1 137.30 96.45
  Z"
/>
<path fill="#000000" d="
  M 118.61 119.05
  C 106.47 127.51 92.24 131.87 77.60 131.08
  Q 73.61 130.86 70.83 131.14
  A 0.38 0.38 0.0 0 1 70.57 130.46
  L 77.00 125.61
  A 1.83 1.81 25.2 0 1 78.04 125.24
  C 91.35 124.74 102.16 122.01 113.49 114.81
  A 0.44 0.43 47.5 0 1 114.00 114.84
  L 118.62 118.79
  A 0.17 0.16 47.8 0 1 118.61 119.05
  Z"
/>
</svg>
