<?xml version="1.0" encoding="UTF-8"?>
<svg version="1.1" xmlns="http://www.w3.org/2000/svg" width="234" height="162">
<path d="M0 0 C77.22 0 154.44 0 234 0 C234 53.46 234 106.92 234 162 C156.78 162 79.56 162 0 162 C0 108.54 0 55.08 0 0 Z " fill="#FDFDFD" transform="translate(0,0)"/>
<path d="M0 0 C2 2 2 2 2.375 4.75 C1.57610004 11.67379965 -4.13101627 16.48431818 -8.875 21.1875 C-9.53483887 21.84387451 -10.19467773 22.50024902 -10.87451172 23.17651367 C-16.65746948 28.83465443 -22.78569702 33.85165118 -29.26074219 38.68847656 C-31.09121492 40.0687825 -32.8949136 41.4791657 -34.6953125 42.8984375 C-35.88019758 43.82813871 -37.06509303 44.75782669 -38.25 45.6875 C-38.79930176 46.12231689 -39.34860352 46.55713379 -39.91455078 47.00512695 C-43.77341194 50 -43.77341194 50 -46 50 C-45.40832031 50.9178125 -44.81664062 51.835625 -44.20703125 52.78125 C-43.40882627 54.02081537 -42.61065078 55.26039973 -41.8125 56.5 C-41.23145508 57.40105469 -41.23145508 57.40105469 -40.63867188 58.3203125 C-39.83640574 59.56680865 -39.03886941 60.81635917 -38.24560547 62.06860352 C-37.41519286 63.35621506 -36.5597206 64.62800489 -35.68017578 65.88256836 C-32.07657039 71.18447865 -30.57588008 76.32908391 -29.25 82.5625 C-29.04246094 83.46935547 -28.83492187 84.37621094 -28.62109375 85.31054688 C-27.52440007 90.18906489 -26.62601974 95.03947403 -26 100 C-30.12744343 100 -31.04694583 98.38249504 -34 95.5625 C-34.99139757 94.63188091 -35.984941 93.70354326 -36.98046875 92.77734375 C-37.737229 92.07327393 -37.737229 92.07327393 -38.50927734 91.35498047 C-41.56328284 88.57906653 -44.80630837 86.03258287 -48.01953125 83.4453125 C-50.27685604 81.59330029 -52.49569843 79.71897101 -54.69921875 77.8046875 C-55.32981201 77.25731934 -55.96040527 76.70995117 -56.61010742 76.14599609 C-57.84924999 75.06676871 -59.08521462 73.98387922 -60.31762695 72.89697266 C-62.8641831 70.6816611 -64.76399179 69.0786694 -68 68 C-70.40624039 69.67125441 -72.58357254 71.36433188 -74.8125 73.25 C-76.17261125 74.37047887 -77.53330106 75.49025576 -78.89453125 76.609375 C-79.58240723 77.17978516 -80.2702832 77.75019531 -80.97900391 78.33789062 C-83.94552373 80.77761845 -86.96982699 83.14016556 -90 85.5 C-93.54835132 88.27263273 -97.08345193 91.05830417 -100.578125 93.8984375 C-112.57220853 103.63881476 -124.7364151 113.41018363 -138.3125 120.875 C-138.91642578 121.21499023 -139.52035156 121.55498047 -140.14257812 121.90527344 C-142.98071488 123.38877171 -144.69742015 124.03159468 -147.91796875 123.6953125 C-148.60503906 123.46585937 -149.29210937 123.23640625 -150 123 C-150.75 120.8046875 -150.75 120.8046875 -151 118 C-149.375 115.5703125 -149.375 115.5703125 -147 113.125 C-146.17628906 112.26390625 -145.35257813 111.4028125 -144.50390625 110.515625 C-143.67761719 109.68546875 -142.85132813 108.8553125 -142 108 C-141.28714844 107.27296875 -140.57429688 106.5459375 -139.83984375 105.796875 C-138.24125351 104.18187213 -136.6301835 102.58300777 -135 101 C-137.8381262 98.75700439 -140.68544441 97.03193391 -143.9140625 95.40625 C-144.83960938 94.93316406 -145.76515625 94.46007812 -146.71875 93.97265625 C-148.66246891 92.98773417 -150.60779664 92.00598089 -152.5546875 91.02734375 C-153.93914062 90.31771484 -153.93914062 90.31771484 -155.3515625 89.59375 C-156.19541504 89.16771484 -157.03926758 88.74167969 -157.90869141 88.30273438 C-160 87 -160 87 -162 84 C-158.10788627 81.35666522 -154.06471372 81.85908402 -149.5703125 82.0078125 C-147.86982275 82.0265165 -146.16929554 82.04203401 -144.46875 82.0546875 C-141.80962042 82.08100586 -139.15650868 82.12382824 -136.49902344 82.22265625 C-126.40897776 82.57124213 -118.9561043 82.3529469 -111.234375 75.3125 C-109.58443647 73.71585938 -107.97751638 72.09243195 -106.39581299 70.42828369 C-104.59318371 68.58371997 -102.6351133 67.03325323 -100.5703125 65.4921875 C-99.98378906 65.04359375 -99.39726563 64.595 -98.79296875 64.1328125 C-97.62734792 63.25381974 -96.46058779 62.37633668 -95.29296875 61.5 C-93.82756889 60.37685907 -92.40814433 59.19414063 -91 58 C-91 57.34 -91 56.68 -91 56 C-92.02738281 55.74605469 -93.05476563 55.49210937 -94.11328125 55.23046875 C-95.51303719 54.88287835 -96.91277583 54.53521829 -98.3125 54.1875 C-98.98345703 54.02185547 -99.65441406 53.85621094 -100.34570312 53.68554688 C-104.34498747 52.69041978 -108.31799797 51.63232509 -112.28515625 50.515625 C-118.17934817 48.89836298 -124.12448822 47.71044842 -130.125 46.5625 C-137.75673576 45.06944546 -145.36769568 43.5330392 -152.9375 41.75 C-153.63439941 41.58701416 -154.33129883 41.42402832 -155.04931641 41.25610352 C-157.49310474 40.67022971 -159.74422503 40.12788748 -162 39 C-161.67 38.01 -161.34 37.02 -161 36 C-158.72434628 34.87269466 -156.5579831 33.94092729 -154.1875 33.0625 C-153.50099365 32.80452637 -152.8144873 32.54655273 -152.10717773 32.28076172 C-150.71269309 31.75955302 -149.31661399 31.24258967 -147.91894531 30.72998047 C-146.31543643 30.11999427 -144.74248521 29.43046075 -143.1796875 28.72265625 C-128.55676594 22.5897593 -110.36334587 25.40787744 -95.25439453 28.56347656 C-90.77834487 29.43018403 -86.26285551 30.04635259 -81.75 30.6875 C-80.85579346 30.81874268 -79.96158691 30.94998535 -79.0402832 31.08520508 C-76.69616903 31.41905494 -74.35014739 31.7126156 -72 32 C-71.12730469 32.13921875 -70.25460938 32.2784375 -69.35546875 32.421875 C-65.36897781 31.70787662 -62.66107943 29.05805799 -59.5625 26.5625 C-58.1316317 25.45220786 -56.6979893 24.34548239 -55.26171875 23.2421875 C-54.18736572 22.41605957 -54.18736572 22.41605957 -53.09130859 21.57324219 C-38.8281996 10.84344131 -18.57595029 -2.86296008 0 0 Z " fill="#124C72" transform="translate(201,33)"/>
<path d="M0 0 C0.98355469 0.32871094 1.96710938 0.65742187 2.98046875 0.99609375 C17.5309955 6.43607076 31.10802414 17.86971783 38 32 C38 32.66 38 33.32 38 34 C36.02 34.66 34.04 35.32 32 36 C31.59910156 35.31035156 31.19820313 34.62070312 30.78515625 33.91015625 C21.51297565 18.58267403 9.35647385 9.82996196 -7.7734375 4.91796875 C-23.13981966 1.21552893 -38.81918459 4.53046099 -52.3125 12.375 C-56.77955261 15.42893702 -58.55116324 17.82558299 -60 23 C-61 24 -61 24 -64.375 24.25 C-68 24 -68 24 -69.9375 22.875 C-71.50422245 20.11019567 -71.38976435 18.11811483 -71 15 C-70 13.25 -70 13.25 -68 12 C-66.07642686 11.5688543 -64.15255281 11.13896607 -62.2265625 10.71875 C-59.68411291 9.89802943 -57.92270483 8.73604599 -55.75 7.1875 C-39.68191693 -4.12376674 -18.44068459 -6.29992959 0 0 Z " fill="#2B2B2B" transform="translate(132,3)"/>
<path d="M0 0 C0 2.31 0 4.62 0 7 C-3.28696233 7.79953138 -4.71023192 8.09658936 -8 7 C-12.70885317 6.51864739 -12.70885317 6.51864739 -16.875 8.3125 C-22.9578141 17.43672114 -19.03462521 37.59489321 -17.41113281 47.96923828 C-16.21401639 53.88231095 -13.71295954 58.32881996 -9.4375 62.5 C-2.93917119 66.49897157 2.38530937 66.71957005 10 66 C15.60529277 64.50942055 18.94263706 61.58141045 22.03515625 56.75 C23.23989317 54.56489012 24.21099632 52.36701105 25 50 C26.65 50 28.3 50 30 50 C30.93504239 52.53630249 31.07794862 53.75397468 30.25 56.3671875 C26.00255163 64.8886308 21.07413097 69.91821967 12 73 C10.68 73 9.36 73 8 73 C8 73.66 8 74.32 8 75 C-0.60530927 75.76491638 -8.24209459 72.83609212 -14.875 67.375 C-20.51102337 62.46758802 -23.87335039 56.23184823 -24.44482422 48.77441406 C-24.62552861 44.68256256 -24.61260779 40.59916662 -24.54199219 36.50463867 C-24.50002718 33.93916138 -24.50094627 31.37631107 -24.5078125 28.81054688 C-24.43467129 9.93977001 -24.43467129 9.93977001 -18.875 3.5625 C-15.03042448 1.47305678 -11.27135106 0.77174679 -7 0 C-6.31035156 -0.20238281 -5.62070312 -0.40476563 -4.91015625 -0.61328125 C-3 -1 -3 -1 0 0 Z " fill="#2C2C2C" transform="translate(55,36)"/>
<path d="M0 0 C15.17717987 4.80162991 27.04277953 15.96591383 35.22265625 29.40625 C36 31 36 31 36 33 C34.02 33.66 32.04 34.32 30 35 C29.59910156 34.31035156 29.19820312 33.62070312 28.78515625 32.91015625 C20.89161352 19.86164685 11.18576966 11.55095335 -3 6 C-2.67 5.34 -2.34 4.68 -2 4 C-1.34 4 -0.68 4 0 4 C0 2.68 0 1.36 0 0 Z " fill="#2A2A2A" transform="translate(134,4)"/>
<path d="M0 0 C2.3125 0.8125 2.3125 0.8125 4 2 C4 2.99 4 3.98 4 5 C-8.6388205 16.26196576 -26.19602218 16.30988192 -42 16 C-35.92592749 9.92592749 -35.92592749 9.92592749 -30.98364258 9.45532227 C-21.0670356 8.48972467 -10.82350609 6.58243774 -2.21875 1.2890625 C-1.4865625 0.86367187 -0.754375 0.43828125 0 0 Z " fill="#292828" transform="translate(144,115)"/>
<path d="M0 0 C0 0.99 0 1.98 0 3 C0.66 3.33 1.32 3.66 2 4 C1.03578125 4.4846875 0.0715625 4.969375 -0.921875 5.46875 C-10.75110311 10.54098747 -10.75110311 10.54098747 -16 20 C-17 21 -17 21 -20.375 21.25 C-24 21 -24 21 -25.9375 19.875 C-27.50422245 17.11019567 -27.38976435 15.11811483 -27 12 C-26 10.25 -26 10.25 -24 9 C-22.08993048 8.57188097 -20.17942687 8.14548799 -18.265625 7.734375 C-14.7110112 6.58218984 -11.90548945 4.49363273 -8.8828125 2.33984375 C-5.73091553 0.09689632 -3.83412996 -0.10089816 0 0 Z " fill="#272727" transform="translate(88,6)"/>
<path d="M0 0 C0 2.31 0 4.62 0 7 C-3.28696233 7.79953138 -4.71023192 8.09658936 -8 7 C-12.70885317 6.51864739 -12.70885317 6.51864739 -16.875 8.3125 C-18.98568677 11.47853015 -19.16689899 14.41050351 -19.31640625 18.10546875 C-19.35830078 19.08837891 -19.40019531 20.07128906 -19.44335938 21.08398438 C-19.48267578 22.10814453 -19.52199219 23.13230469 -19.5625 24.1875 C-19.60568359 25.22326172 -19.64886719 26.25902344 -19.69335938 27.32617188 C-19.79944366 29.8839819 -19.90150146 32.44188845 -20 35 C-20.33 35 -20.66 35 -21 35 C-21.39586546 31.29358621 -21.76295365 27.58485771 -22.125 23.875 C-22.23714844 22.82828125 -22.34929688 21.7815625 -22.46484375 20.703125 C-23.39915971 10.86166357 -23.39915971 10.86166357 -21 6 C-17.00363359 1.64032755 -12.56532773 1.00554222 -7 0 C-6.31035156 -0.20238281 -5.62070312 -0.40476563 -4.91015625 -0.61328125 C-3 -1 -3 -1 0 0 Z " fill="#292929" transform="translate(55,36)"/>
<path d="M0 0 C2.45185176 0.31993675 4.82699027 0.71521844 7.25 1.1875 C7.91902344 1.30158203 8.58804688 1.41566406 9.27734375 1.53320312 C13.82686845 2.41361213 16.69956072 3.74872928 20 7 C21.86764524 11.09103243 22.21270817 14.53312846 22 19 C20.68 19 19.36 19 18 19 C17.87882812 18.37351562 17.75765625 17.74703125 17.6328125 17.1015625 C17.46523437 16.28429687 17.29765625 15.46703125 17.125 14.625 C16.96257812 13.81289063 16.80015625 13.00078125 16.6328125 12.1640625 C16.13341068 9.81326077 16.13341068 9.81326077 14 8 C8.84869218 7.73806909 4.07672201 8.15387967 -1 9 C-1.09765625 2.84765625 -1.09765625 2.84765625 -1 1 C-0.67 0.67 -0.34 0.34 0 0 Z " fill="#2E2E2E" transform="translate(64,35)"/>
<path d="M0 0 C-0.40799325 8.02386726 -2.91036813 14.62364642 -6 22 C-9.7292406 20.556423 -9.7292406 20.556423 -10.8515625 18.25 C-11.17935326 13.28138219 -8.99701225 8.4683149 -7 4 C-3.18181818 0 -3.18181818 0 0 0 Z " fill="#292C2B" transform="translate(176,74)"/>
<path d="M0 0 C2.62329048 0.36183317 3.76775924 0.74954428 5.59375 2.71875 C7.22664592 5.36767006 7.48450064 7.16440975 7.6875 10.25 C7.78611328 11.58804688 7.78611328 11.58804688 7.88671875 12.953125 C7.92410156 13.62859375 7.96148437 14.3040625 8 15 C6.68 15 5.36 15 4 15 C3.89042969 14.39671875 3.78085938 13.7934375 3.66796875 13.171875 C2.49202872 7.06315013 2.49202872 7.06315013 -1 2 C-0.67 1.34 -0.34 0.68 0 0 Z " fill="#262626" transform="translate(78,39)"/>
<path d="M0 0 C2.19459255 0.98378287 3.79664694 1.77896406 5.4375 3.5625 C7.49199044 5.45263121 9.27994277 5.6324247 12 6 C12.33 5.34 12.66 4.68 13 4 C13.33 6.31 13.66 8.62 14 11 C9.85878264 11 8.16365957 8.75914512 5.3125 6.0625 C4.80138672 5.59392578 4.29027344 5.12535156 3.76367188 4.64257812 C2.48385946 3.45503523 1.23873906 2.23032657 0 1 C0 0.67 0 0.34 0 0 Z " fill="#234E6A" transform="translate(161,122)"/>
<path d="M0 0 C2.125 0.375 2.125 0.375 4 1 C4 2.32 4 3.64 4 5 C2.35 5.33 0.7 5.66 -1 6 C-1.625 4.125 -1.625 4.125 -2 2 C-1.34 1.34 -0.68 0.68 0 0 Z " fill="#EEEEEE" transform="translate(66,18)"/>
<path d="M0 0 C0.4125 0.639375 0.825 1.27875 1.25 1.9375 C2.82237852 4.09673535 2.82237852 4.09673535 5 4.875 C7.32186369 5.22274553 7.32186369 5.22274553 10 3 C9.34 4.32 8.68 5.64 8 7 C5.69 7 3.38 7 1 7 C-0.0625 5.1875 -0.0625 5.1875 -1 3 C-0.67 2.01 -0.34 1.02 0 0 Z " fill="#141414" transform="translate(63,20)"/>
<path d="M0 0 C0.66 1.32 1.32 2.64 2 4 C1.01 4.33 0.02 4.66 -1 5 C-1.73323796 7.01508358 -1.73323796 7.01508358 -2 9 C-2.33 9 -2.66 9 -3 9 C-3.36923077 3.46153846 -3.36923077 3.46153846 -1.5 1.125 C-1.005 0.75375 -0.51 0.3825 0 0 Z " fill="#313131" transform="translate(64,15)"/>
<path d="M0 0 C0.33 1.32 0.66 2.64 1 4 C-1.35968744 6.09749995 -2.54616994 6.96905704 -5.75 7.1875 C-6.86375 7.0946875 -6.86375 7.0946875 -8 7 C-7.67 6.34 -7.34 5.68 -7 5 C-6.01 4.690625 -5.02 4.38125 -4 4.0625 C-2.515 3.5365625 -2.515 3.5365625 -1 3 C-0.67 2.01 -0.34 1.02 0 0 Z " fill="#323232" transform="translate(73,19)"/>
<path d="M0 0 C0 3 0 3 -1.6875 5.125 C-4.20933322 7.16972964 -5.81390075 7.64598897 -9 8 C-6.17493137 5.0702992 -3.21203935 2.49825283 0 0 Z " fill="#1D1D1C" transform="translate(76,95)"/>
<path d="M0 0 C0.66 0.33 1.32 0.66 2 1 C2 2.32 2 3.64 2 5 C0.02 5.99 0.02 5.99 -2 7 C-1.34 4.69 -0.68 2.38 0 0 Z " fill="#212223" transform="translate(80,86)"/>
<path d="M0 0 C0.66 0.33 1.32 0.66 2 1 C2.36923077 6.53846154 2.36923077 6.53846154 0.5 8.875 C-0.2425 9.431875 -0.2425 9.431875 -1 10 C-0.7215625 9.1028125 -0.7215625 9.1028125 -0.4375 8.1875 C0.22093687 5.83591238 0.22093687 5.83591238 -1 3 C-0.67 2.01 -0.34 1.02 0 0 Z " fill="#184161" transform="translate(201,34)"/>
<path d="M0 0 C0 0.66 0 1.32 0 2 C-3 4 -3 4 -6.1875 3.625 C-7.115625 3.41875 -8.04375 3.2125 -9 3 C-9 2.67 -9 2.34 -9 2 C-2.25 0 -2.25 0 0 0 Z " fill="#242424" transform="translate(50,36)"/>
</svg>
